<svg xmlns="http://www.w3.org/2000/svg" viewBox="0 0 600 600"><defs><linearGradient id="s" x2="0" y2="1"><stop stop-color="#191e41"/><stop offset=".63" stop-color="#986287"/><stop offset="1" stop-color="#e6a187"/></linearGradient><linearGradient id="r" x2="0" y2="1"><stop stop-color="#363548"/><stop offset="1" stop-color="#131f34"/></linearGradient></defs><path fill="url(#s)" d="M0 0h600v600H0z"/><circle cx="370" cy="267" r="68" fill="#f4b08d"/><g fill="#ddd0c8" opacity=".7"><circle cx="101" cy="94" r="2"/><circle cx="210" cy="67" r="1.5"/><circle cx="484" cy="115" r="2"/><circle cx="346" cy="80" r="1"/></g><path d="m0 343 95-80 95 68 118-30 146 20 146-66v200H0" fill="#3f3c57"/><path d="m0 375 107-34 144 23 94-29 97 24 158-49v290H0" fill="#222b43"/><path d="M0 600 306 349h40l254 251" fill="url(#r)"/><path d="M0 585 306 349m39 0L600 584" stroke="#a59da6" stroke-width="3"/><path d="m325 360-2 8m-3 11-3 13m-5 17-7 22m-9 25-14 39m-15 35-25 63" stroke="#ecba94" stroke-width="5"/><path d="M96 306v214m0-214h57m-7 0v9M481 308v205m0-205h-47m6 0v10" stroke="#171e33" stroke-width="7"/><path d="M133 315h22m272 0h22" stroke="#f9dfb1" stroke-width="4"/><path d="M127 430h42l-4 22h-43z" fill="#1c2234"/><path d="M126 434h8m19 0h8" stroke="#d69b94" stroke-width="4"/></svg>
